<svg xmlns="http://www.w3.org/2000/svg" xmlns:xlink="http://www.w3.org/1999/xlink" width="756" zoomAndPan="magnify" viewBox="0 0 567 567.000005" height="756" preserveAspectRatio="xMidYMid meet" version="1.2"><defs><clipPath id="dac6e7de78"><path d="M 0.5 0 L 566.5 0 L 566.5 566 L 0.5 566 Z M 0.5 0 "/></clipPath><clipPath id="67481e276e"><path d="M 402.640625 90.808594 L 406.894531 90.808594 L 406.894531 94.445312 L 402.640625 94.445312 Z M 402.640625 90.808594 "/></clipPath><clipPath id="bc32f2fdd1"><path d="M 406.882812 92.089844 C 405.011719 95.085938 403.214844 94.5625 402.839844 93.960938 C 402.464844 93.289062 402.765625 91.492188 403.363281 90.96875 C 403.964844 90.519531 406.359375 91.191406 406.359375 91.191406 "/></clipPath><clipPath id="99b8782dc4"><path d="M 0.640625 0.808594 L 4.894531 0.808594 L 4.894531 4.445312 L 0.640625 4.445312 Z M 0.640625 0.808594 "/></clipPath><clipPath id="6509484561"><path d="M 4.882812 2.089844 C 3.011719 5.085938 1.214844 4.5625 0.839844 3.960938 C 0.464844 3.289062 0.765625 1.492188 1.363281 0.96875 C 1.964844 0.519531 4.359375 1.191406 4.359375 1.191406 "/></clipPath><clipPath id="d18d961f47"><rect x="0" width="5" y="0" height="5"/></clipPath></defs><g id="b541d388b7"><g clip-rule="nonzero" clip-path="url(#dac6e7de78)"><path style=" stroke:none;fill-rule:nonzero;fill:#023939;fill-opacity:1;" d="M 566.488281 282.996094 C 566.488281 287.625 566.375 292.253906 566.148438 296.882812 C 565.921875 301.507812 565.582031 306.125 565.125 310.734375 C 564.671875 315.34375 564.105469 319.9375 563.425781 324.519531 C 562.746094 329.101562 561.953125 333.664062 561.050781 338.203125 C 560.148438 342.746094 559.132812 347.265625 558.007812 351.757812 C 556.882812 356.25 555.648438 360.710938 554.304688 365.144531 C 552.960938 369.574219 551.507812 373.972656 549.945312 378.332031 C 548.386719 382.695312 546.71875 387.011719 544.949219 391.292969 C 543.175781 395.570312 541.296875 399.804688 539.320312 403.992188 C 537.339844 408.175781 535.257812 412.3125 533.074219 416.398438 C 530.890625 420.484375 528.609375 424.511719 526.226562 428.484375 C 523.847656 432.457031 521.367188 436.367188 518.796875 440.21875 C 516.222656 444.070312 513.558594 447.855469 510.796875 451.574219 C 508.039062 455.296875 505.191406 458.945312 502.253906 462.523438 C 499.3125 466.105469 496.289062 469.609375 493.179688 473.042969 C 490.070312 476.472656 486.875 479.828125 483.601562 483.101562 C 480.328125 486.378906 476.972656 489.570312 473.542969 492.679688 C 470.109375 495.789062 466.605469 498.816406 463.023438 501.753906 C 459.445312 504.691406 455.792969 507.539062 452.074219 510.296875 C 448.355469 513.058594 444.570312 515.722656 440.71875 518.296875 C 436.867188 520.871094 432.957031 523.347656 428.984375 525.726562 C 425.011719 528.109375 420.980469 530.390625 416.898438 532.574219 C 412.8125 534.757812 408.675781 536.839844 404.488281 538.820312 C 400.304688 540.800781 396.070312 542.675781 391.792969 544.449219 C 387.511719 546.222656 383.191406 547.886719 378.832031 549.449219 C 374.472656 551.007812 370.074219 552.460938 365.644531 553.804688 C 361.210938 555.148438 356.75 556.382812 352.257812 557.507812 C 347.765625 558.632812 343.246094 559.648438 338.703125 560.550781 C 334.160156 561.457031 329.597656 562.246094 325.019531 562.925781 C 320.4375 563.605469 315.839844 564.171875 311.234375 564.628906 C 306.625 565.082031 302.007812 565.421875 297.378906 565.648438 C 292.753906 565.875 288.125 565.988281 283.496094 565.988281 C 278.863281 565.988281 274.234375 565.875 269.609375 565.648438 C 264.980469 565.421875 260.363281 565.082031 255.753906 564.628906 C 251.148438 564.171875 246.550781 563.605469 241.96875 562.925781 C 237.390625 562.246094 232.828125 561.457031 228.285156 560.550781 C 223.742188 559.648438 219.222656 558.632812 214.730469 557.507812 C 210.238281 556.382812 205.777344 555.148438 201.34375 553.804688 C 196.914062 552.460938 192.515625 551.007812 188.15625 549.445312 C 183.796875 547.886719 179.476562 546.21875 175.195312 544.449219 C 170.917969 542.675781 166.683594 540.800781 162.5 538.820312 C 158.3125 536.839844 154.175781 534.757812 150.089844 532.574219 C 146.007812 530.390625 141.976562 528.109375 138.003906 525.726562 C 134.03125 523.347656 130.121094 520.871094 126.269531 518.296875 C 122.417969 515.722656 118.632812 513.058594 114.914062 510.296875 C 111.195312 507.539062 107.542969 504.691406 103.964844 501.753906 C 100.382812 498.816406 96.878906 495.789062 93.445312 492.679688 C 90.015625 489.570312 86.660156 486.378906 83.386719 483.101562 C 80.113281 479.828125 76.917969 476.472656 73.808594 473.042969 C 70.699219 469.609375 67.675781 466.105469 64.734375 462.523438 C 61.796875 458.945312 58.949219 455.296875 56.191406 451.574219 C 53.429688 447.855469 50.765625 444.070312 48.191406 440.21875 C 45.621094 436.367188 43.140625 432.457031 40.761719 428.484375 C 38.378906 424.511719 36.097656 420.484375 33.914062 416.398438 C 31.730469 412.3125 29.648438 408.175781 27.667969 403.992188 C 25.691406 399.804688 23.8125 395.570312 22.039062 391.292969 C 20.269531 387.011719 18.601562 382.695312 17.042969 378.332031 C 15.480469 373.972656 14.027344 369.574219 12.683594 365.144531 C 11.339844 360.710938 10.105469 356.25 8.980469 351.757812 C 7.855469 347.265625 6.839844 342.746094 5.9375 338.203125 C 5.035156 333.664062 4.242188 329.101562 3.5625 324.519531 C 2.882812 319.9375 2.316406 315.34375 1.863281 310.734375 C 1.40625 306.125 1.066406 301.507812 0.839844 296.882812 C 0.613281 292.253906 0.5 287.625 0.5 282.996094 C 0.5 278.363281 0.613281 273.734375 0.839844 269.109375 C 1.066406 264.484375 1.40625 259.867188 1.863281 255.257812 C 2.316406 250.648438 2.882812 246.050781 3.5625 241.472656 C 4.242188 236.890625 5.035156 232.328125 5.9375 227.785156 C 6.839844 223.242188 7.855469 218.726562 8.980469 214.234375 C 10.105469 209.738281 11.339844 205.277344 12.683594 200.847656 C 14.027344 196.414062 15.480469 192.015625 17.042969 187.65625 C 18.601562 183.296875 20.269531 178.976562 22.039062 174.699219 C 23.8125 170.417969 25.691406 166.1875 27.667969 162 C 29.648438 157.8125 31.730469 153.675781 33.914062 149.59375 C 36.097656 145.507812 38.378906 141.480469 40.761719 137.507812 C 43.140625 133.535156 45.621094 129.621094 48.191406 125.769531 C 50.765625 121.921875 53.429688 118.136719 56.191406 114.414062 C 58.949219 110.695312 61.796875 107.046875 64.734375 103.464844 C 67.675781 99.882812 70.699219 96.378906 73.808594 92.945312 C 76.917969 89.515625 80.113281 86.164062 83.386719 82.886719 C 86.660156 79.613281 90.015625 76.417969 93.445312 73.308594 C 96.878906 70.199219 100.382812 67.175781 103.964844 64.238281 C 107.542969 61.296875 111.195312 58.449219 114.914062 55.691406 C 118.632812 52.933594 122.417969 50.265625 126.269531 47.691406 C 130.121094 45.121094 134.03125 42.644531 138.003906 40.261719 C 141.976562 37.882812 146.007812 35.597656 150.089844 33.414062 C 154.175781 31.234375 158.3125 29.152344 162.5 27.171875 C 166.683594 25.191406 170.917969 23.3125 175.195312 21.542969 C 179.476562 19.769531 183.796875 18.101562 188.15625 16.542969 C 192.515625 14.984375 196.914062 13.53125 201.34375 12.1875 C 205.777344 10.839844 210.238281 9.605469 214.730469 8.480469 C 219.222656 7.355469 223.742188 6.339844 228.285156 5.4375 C 232.828125 4.535156 237.390625 3.742188 241.96875 3.0625 C 246.550781 2.382812 251.148438 1.816406 255.753906 1.363281 C 260.363281 0.910156 264.980469 0.566406 269.609375 0.339844 C 274.234375 0.113281 278.863281 0 283.496094 0 C 288.125 0 292.753906 0.113281 297.378906 0.339844 C 302.007812 0.566406 306.625 0.910156 311.234375 1.363281 C 315.839844 1.816406 320.4375 2.382812 325.019531 3.0625 C 329.597656 3.742188 334.160156 4.535156 338.703125 5.4375 C 343.246094 6.339844 347.765625 7.355469 352.257812 8.480469 C 356.75 9.605469 361.210938 10.839844 365.644531 12.1875 C 370.074219 13.53125 374.472656 14.984375 378.832031 16.542969 C 383.191406 18.101562 387.511719 19.769531 391.792969 21.542969 C 396.070312 23.3125 400.304688 25.191406 404.488281 27.171875 C 408.675781 29.152344 412.8125 31.234375 416.898438 33.414062 C 420.980469 35.597656 425.011719 37.882812 428.984375 40.261719 C 432.957031 42.644531 436.867188 45.121094 440.71875 47.691406 C 444.570312 50.265625 448.355469 52.933594 452.074219 55.691406 C 455.792969 58.449219 459.445312 61.296875 463.023438 64.238281 C 466.605469 67.175781 470.109375 70.199219 473.542969 73.308594 C 476.972656 76.417969 480.328125 79.613281 483.601562 82.886719 C 486.875 86.164062 490.070312 89.515625 493.179688 92.945312 C 496.289062 96.378906 499.3125 99.882812 502.253906 103.464844 C 505.191406 107.046875 508.039062 110.695312 510.796875 114.414062 C 513.558594 118.136719 516.222656 121.921875 518.796875 125.769531 C 521.367188 129.621094 523.847656 133.535156 526.226562 137.507812 C 528.609375 141.480469 530.890625 145.507812 533.074219 149.59375 C 535.257812 153.675781 537.339844 157.8125 539.320312 162 C 541.296875 166.1875 543.175781 170.417969 544.949219 174.699219 C 546.71875 178.976562 548.386719 183.296875 549.945312 187.65625 C 551.507812 192.015625 552.960938 196.414062 554.304688 200.847656 C 555.648438 205.277344 556.882812 209.738281 558.007812 214.234375 C 559.132812 218.726562 560.148438 223.242188 561.050781 227.785156 C 561.953125 232.328125 562.746094 236.890625 563.425781 241.472656 C 564.105469 246.050781 564.671875 250.648438 565.125 255.257812 C 565.582031 259.867188 565.921875 264.484375 566.148438 269.109375 C 566.375 273.734375 566.488281 278.363281 566.488281 282.996094 Z M 566.488281 282.996094 "/></g><path style=" stroke:none;fill-rule:nonzero;fill:#ffffff;fill-opacity:1;" d="M 267.105469 359.992188 L 275.59375 378.625 L 291.394531 378.625 L 299.882812 359.992188 L 283.496094 348.671875 Z M 267.105469 359.992188 "/><path style=" stroke:none;fill-rule:nonzero;fill:#ffffff;fill-opacity:1;" d="M 219.113281 314.359375 L 249.535156 357.046875 L 255.429688 352.917969 C 255.546875 352.800781 255.667969 352.683594 255.902344 352.566406 L 273.117188 340.539062 L 233.144531 307.992188 C 228.664062 310.46875 223.949219 312.472656 219.113281 314.359375 Z M 219.113281 314.359375 "/><path style=" stroke:none;fill-rule:nonzero;fill:#ffffff;fill-opacity:1;" d="M 311.203125 352.566406 C 311.320312 352.683594 311.558594 352.800781 311.675781 352.917969 L 317.570312 357.046875 L 347.992188 314.359375 C 343.160156 312.472656 338.441406 310.46875 333.960938 307.992188 L 293.988281 340.539062 Z M 311.203125 352.566406 "/><path style=" stroke:none;fill-rule:nonzero;fill:#ffffff;fill-opacity:1;" d="M 251.539062 370.839844 C 250.476562 371.550781 249.179688 372.019531 247.882812 372.019531 C 245.878906 372.019531 243.992188 371.078125 242.695312 369.308594 L 216.992188 333.226562 C 220.882812 351.855469 231.847656 384.402344 261.445312 435.457031 L 265.21875 386.289062 L 256.492188 367.421875 Z M 251.539062 370.839844 "/><path style=" stroke:none;fill-rule:nonzero;fill:#ffffff;fill-opacity:1;" d="M 277.597656 391.242188 L 272.765625 454.207031 C 274.769531 457.390625 276.773438 460.691406 279.011719 464.113281 L 288.09375 464.113281 C 290.332031 460.691406 292.335938 457.273438 294.460938 453.972656 L 289.625 391.242188 Z M 277.597656 391.242188 "/><path style=" stroke:none;fill-rule:nonzero;fill:#ffffff;fill-opacity:1;" d="M 349.996094 333.226562 L 324.175781 369.425781 C 322.996094 371.195312 320.992188 372.136719 318.988281 372.136719 C 317.6875 372.136719 316.511719 371.785156 315.332031 370.960938 L 310.261719 367.421875 L 301.652344 386.050781 L 305.425781 435.222656 C 335.257812 384.285156 346.105469 351.738281 349.996094 333.226562 Z M 349.996094 333.226562 "/><path style=" stroke:none;fill-rule:nonzero;fill:#ffffff;fill-opacity:1;" d="M 390.679688 332.285156 C 390.5625 332.285156 390.5625 332.164062 390.441406 332.164062 C 382.425781 327.09375 373.582031 323.558594 364.5 320.257812 C 364.148438 326.386719 362.851562 335.347656 359.429688 347.730469 C 350.941406 377.917969 333.019531 415.296875 306.132812 458.921875 C 305.074219 460.691406 304.011719 462.34375 302.949219 464.113281 L 371.929688 464.113281 L 371.929688 421.308594 C 371.929688 417.769531 374.761719 414.941406 378.296875 414.941406 C 381.835938 414.941406 384.664062 417.769531 384.664062 421.308594 L 384.664062 464.113281 L 420.394531 464.113281 L 420.394531 398.90625 C 420.394531 361.289062 407.660156 343.25 390.679688 332.285156 Z M 390.679688 332.285156 "/><path style=" stroke:none;fill-rule:nonzero;fill:#ffffff;fill-opacity:1;" d="M 260.972656 459.160156 C 234.089844 415.414062 216.164062 377.917969 207.558594 347.730469 C 204.019531 335.347656 202.839844 326.386719 202.488281 320.257812 C 193.523438 323.441406 184.5625 326.976562 176.546875 332.164062 C 176.425781 332.164062 176.425781 332.285156 176.308594 332.285156 C 159.328125 343.25 146.59375 361.410156 146.59375 399.023438 L 146.59375 464.230469 L 182.324219 464.230469 L 182.324219 421.425781 C 182.324219 417.890625 185.152344 415.058594 188.691406 415.058594 C 192.226562 415.058594 195.058594 417.890625 195.058594 421.425781 L 195.058594 464.230469 L 264.039062 464.230469 C 262.976562 462.460938 261.914062 460.808594 260.972656 459.160156 Z M 260.972656 459.160156 "/><path style=" stroke:none;fill-rule:nonzero;fill:#ffffff;fill-opacity:1;" d="M 323.230469 300.445312 C 317.925781 295.492188 313.917969 289.363281 311.792969 281.226562 C 303.421875 286.0625 294.222656 288.535156 284.554688 288.535156 L 282.550781 288.535156 C 272.882812 288.535156 263.683594 286.0625 255.3125 281.226562 C 253.308594 289.480469 249.179688 295.613281 243.875 300.5625 L 283.613281 332.992188 Z M 323.230469 300.445312 "/><path style=" stroke:none;fill-rule:nonzero;fill:#ffffff;fill-opacity:1;" d="M 254.488281 265.308594 C 261.679688 271.320312 270.878906 275.800781 282.433594 275.800781 L 284.4375 275.800781 C 314.035156 275.800781 332.898438 245.378906 338.558594 215.195312 C 343.511719 188.308594 338.089844 164.960938 325.589844 157.652344 C 310.613281 165.433594 263.210938 187.25 229.488281 174.867188 C 222.886719 196.09375 227.839844 228.402344 241.753906 250.332031 C 244.9375 255.285156 249.0625 260.589844 254.371094 265.070312 C 254.371094 265.191406 254.488281 265.308594 254.488281 265.308594 Z M 254.488281 265.308594 "/><path style=" stroke:none;fill-rule:nonzero;fill:#ffffff;fill-opacity:1;" d="M 176.074219 294.667969 C 178.902344 296.082031 180.320312 299.503906 179.257812 302.449219 C 178.785156 303.628906 178.433594 304.808594 177.960938 305.871094 C 175.601562 312.003906 174.542969 315.1875 175.25 318.132812 C 184.683594 312.945312 194.703125 309.527344 204.019531 306.222656 C 227.839844 297.851562 241.871094 291.957031 243.757812 272.617188 C 239.039062 268.253906 234.796875 263.066406 231.023438 257.171875 C 213.335938 229.34375 208.617188 188.308594 220.175781 163.785156 C 220.882812 162.25 222.296875 161.070312 223.945312 160.480469 C 225.597656 159.890625 227.367188 160.128906 228.898438 160.953125 C 252.601562 173.6875 294.105469 160.480469 322.289062 145.152344 C 323.9375 144.328125 325.824219 144.210938 327.59375 144.800781 C 338.441406 148.925781 346.226562 158.949219 350.234375 173.6875 C 353.652344 186.304688 353.890625 201.871094 350.941406 217.550781 C 347.523438 236.066406 339.976562 253.164062 329.714844 265.660156 C 327.59375 268.253906 325.355469 270.613281 323.113281 272.738281 C 325 292.074219 339.03125 297.96875 362.851562 306.34375 C 372.164062 309.644531 382.1875 313.179688 391.621094 318.25 C 392.328125 315.304688 391.269531 312.121094 388.910156 305.988281 C 388.554688 304.925781 388.085938 303.746094 387.613281 302.570312 C 386.550781 299.503906 387.847656 296.203125 390.796875 294.785156 C 400.113281 290.1875 402.824219 279.339844 402.234375 270.851562 C 401.527344 261.296875 396.457031 250.097656 386.550781 246.796875 C 383.367188 245.734375 381.597656 242.433594 382.425781 239.128906 C 386.316406 224.507812 381.128906 212.71875 370.398438 195.972656 C 367.09375 191.023438 365.328125 183.476562 362.96875 174.042969 C 355.539062 143.621094 345.28125 102.113281 284.792969 102.113281 C 284.320312 102.113281 283.964844 102.113281 283.496094 102.113281 L 283.375 102.113281 C 221.707031 101.523438 211.449219 143.503906 203.902344 174.042969 C 201.542969 183.476562 199.773438 191.023438 196.472656 195.972656 C 185.625 212.71875 180.554688 224.507812 184.445312 239.128906 C 185.269531 242.316406 183.503906 245.734375 180.320312 246.796875 C 170.296875 250.097656 165.226562 261.296875 164.636719 270.851562 C 164.046875 279.222656 166.757812 290.070312 176.074219 294.667969 Z M 176.074219 294.667969 "/><g clip-rule="nonzero" clip-path="url(#67481e276e)"><g clip-rule="nonzero" clip-path="url(#bc32f2fdd1)"><g transform="matrix(1,0,0,1,402,90)"><g clip-path="url(#d18d961f47)"><g clip-rule="nonzero" clip-path="url(#99b8782dc4)"><g clip-rule="nonzero" clip-path="url(#6509484561)"><rect x="0" width="5" height="5" y="0" style="fill:#023939;fill-opacity:1;stroke:none;"/></g></g></g></g></g></g></g></svg>