<svg xmlns="http://www.w3.org/2000/svg" xmlns:xlink="http://www.w3.org/1999/xlink" width="756" zoomAndPan="magnify" viewBox="0 0 567 567.000005" height="756" preserveAspectRatio="xMidYMid meet" version="1.2"><defs><clipPath id="53da8d5dbf"><path d="M 36.984375 36.484375 L 530.011719 36.484375 L 530.011719 529.515625 L 36.984375 529.515625 Z M 36.984375 36.484375 "/></clipPath><clipPath id="95cb425054"><path d="M 283.5 36.484375 C 147.351562 36.484375 36.984375 146.851562 36.984375 283 C 36.984375 419.144531 147.351562 529.515625 283.5 529.515625 C 419.644531 529.515625 530.011719 419.144531 530.011719 283 C 530.011719 146.851562 419.644531 36.484375 283.5 36.484375 Z M 283.5 36.484375 "/></clipPath><clipPath id="80c1dfedef"><path d="M 0.984375 0.484375 L 494.011719 0.484375 L 494.011719 493.515625 L 0.984375 493.515625 Z M 0.984375 0.484375 "/></clipPath><clipPath id="b1f4396694"><path d="M 247.5 0.484375 C 111.351562 0.484375 0.984375 110.851562 0.984375 247 C 0.984375 383.144531 111.351562 493.515625 247.5 493.515625 C 383.644531 493.515625 494.011719 383.144531 494.011719 247 C 494.011719 110.851562 383.644531 0.484375 247.5 0.484375 Z M 247.5 0.484375 "/></clipPath><clipPath id="6dbb01a628"><rect x="0" width="495" y="0" height="494"/></clipPath><clipPath id="7db3df8ada"><path d="M 0.5 0 L 566.5 0 L 566.5 566 L 0.5 566 Z M 0.5 0 "/></clipPath></defs><g id="1375fd27b1"><g clip-rule="nonzero" clip-path="url(#53da8d5dbf)"><g clip-rule="nonzero" clip-path="url(#95cb425054)"><g transform="matrix(1,0,0,1,36,36)"><g clip-path="url(#6dbb01a628)"><g clip-rule="nonzero" clip-path="url(#80c1dfedef)"><g clip-rule="nonzero" clip-path="url(#b1f4396694)"><path style=" stroke:none;fill-rule:nonzero;fill:#ffffff;fill-opacity:1;" d="M 0.984375 0.484375 L 494.011719 0.484375 L 494.011719 493.515625 L 0.984375 493.515625 Z M 0.984375 0.484375 "/></g></g></g></g></g></g><g clip-rule="nonzero" clip-path="url(#7db3df8ada)"><path style=" stroke:none;fill-rule:evenodd;fill:#023939;fill-opacity:1;" d="M 283.378906 0 C 439.730469 0 566.488281 126.757812 566.488281 282.878906 C 566.488281 439.230469 439.730469 565.988281 283.378906 565.988281 C 127.257812 565.988281 0.5 439.230469 0.5 282.878906 C 0.5 126.757812 127.257812 0 283.378906 0 Z M 219.300781 236.042969 L 219.066406 236.042969 C 216.035156 235.109375 213.472656 233.945312 211.609375 232.546875 C 209.746094 230.917969 208.347656 228.820312 206.949219 224.859375 C 205.550781 220.898438 203.921875 214.605469 202.753906 209.246094 C 201.589844 203.886719 200.890625 198.992188 200.425781 194.800781 C 200.191406 190.839844 200.191406 187.109375 201.355469 184.3125 C 202.289062 181.519531 204.851562 179.421875 206.714844 178.722656 C 208.582031 178.253906 209.511719 178.488281 210.445312 178.488281 C 211.144531 178.253906 209.976562 177.789062 209.976562 177.324219 L 207.648438 146.097656 C 206.25 131.652344 209.277344 110.679688 219.765625 100.894531 C 222.328125 98.566406 230.714844 97.167969 232.347656 98.332031 C 230.714844 95.535156 230.015625 91.339844 233.28125 86.914062 C 236.542969 82.71875 243.765625 74.097656 250.988281 70.835938 C 262.40625 65.710938 274.988281 61.980469 287.105469 63.148438 C 301.085938 64.542969 314.601562 70.371094 326.253906 77.828125 C 335.804688 84.117188 343.726562 92.972656 348.855469 102.757812 C 354.445312 113.476562 356.078125 125.128906 357.242188 137.710938 C 358.40625 150.292969 357.476562 165.441406 355.613281 178.253906 C 357.011719 178.253906 358.175781 178.722656 359.574219 179.1875 C 362.136719 180.121094 364.464844 181.75 365.632812 185.246094 C 366.796875 188.507812 366.5625 193.167969 366.097656 198.0625 C 365.863281 202.953125 365.164062 207.613281 364 212.507812 C 362.835938 217.402344 361.203125 222.296875 359.574219 225.558594 C 358.175781 229.050781 357.011719 231.148438 355.144531 232.78125 C 353.046875 234.179688 350.71875 235.34375 347.6875 236.277344 C 346.992188 236.277344 346.523438 236.507812 345.824219 236.742188 L 344.894531 251.421875 C 344.425781 260.042969 341.164062 267.265625 335.574219 273.558594 L 335.574219 298.957031 C 335.574219 304.082031 333.242188 308.511719 329.28125 311.539062 L 291.53125 340.664062 L 305.28125 348.589844 C 307.84375 350.21875 306.445312 353.714844 305.28125 356.742188 L 299.6875 369.328125 C 298.289062 372.355469 296.660156 375.152344 298.058594 378.179688 L 299.222656 381.210938 L 307.84375 500.980469 C 299.222656 502.144531 293.398438 502.609375 284.308594 502.609375 C 275.222656 502.609375 268.699219 502.144531 259.84375 500.980469 L 269.164062 381.210938 L 270.097656 379.347656 C 271.492188 376.316406 269.863281 373.519531 268.464844 370.492188 L 261.707031 356.742188 C 260.308594 353.949219 259.144531 350.21875 261.707031 348.820312 L 276.386719 339.96875 L 239.339844 311.539062 C 235.375 308.511719 233.046875 304.082031 233.046875 298.957031 L 233.046875 277.054688 L 230.25 274.257812 C 224.191406 267.734375 220.929688 260.277344 220.230469 251.1875 Z M 316.464844 500.28125 L 339.300781 393.792969 C 346.992188 379.347656 349.320312 370.957031 350.019531 355.113281 C 350.484375 340.664062 349.320312 320.160156 348.15625 298.957031 C 347.921875 298.023438 348.386719 297.324219 349.320312 296.859375 C 350.253906 296.394531 351.183594 296.625 351.882812 297.09375 C 358.175781 302.683594 365.632812 308.277344 379.84375 314.101562 C 397.320312 320.859375 424.816406 327.851562 442.527344 332.277344 C 460 336.703125 467.925781 338.335938 473.515625 342.53125 C 479.109375 346.492188 482.371094 353.25 487.730469 371.421875 C 487.964844 372.589844 488.429688 374.6875 488.664062 377.480469 C 455.339844 442.492188 391.730469 489.792969 316.464844 500.28125 Z M 79.957031 377.480469 C 80.191406 374.6875 80.65625 372.589844 80.890625 371.421875 C 86.25 353.25 89.511719 346.722656 95.101562 342.53125 C 100.695312 338.335938 108.617188 336.703125 126.09375 332.277344 C 143.800781 327.851562 171.296875 320.859375 188.542969 314.101562 C 202.988281 308.511719 210.445312 302.683594 216.734375 297.09375 C 217.433594 296.625 218.367188 296.394531 219.300781 296.859375 C 219.996094 297.324219 220.464844 298.023438 220.464844 298.957031 C 219.300781 320.160156 218.132812 340.664062 218.601562 355.113281 C 219.066406 370.957031 221.628906 379.347656 229.085938 393.792969 L 251.921875 500.28125 C 176.65625 489.792969 113.277344 442.492188 79.957031 377.480469 Z M 79.957031 377.480469 "/></g></g></svg>